<svg width="70" height="70" viewBox="0 0 70 70" fill="none" xmlns="http://www.w3.org/2000/svg">
<g id="mdi:key-change">
<path id="Vector" d="M21.875 5.83337C27.7083 5.83337 32.375 9.33337 34.125 14.5834H61.25V23.3334H52.5V32.0834H43.75V23.3334H34.125C32.375 28.5834 27.4167 32.0834 21.875 32.0834C14.5833 32.0834 8.75 26.25 8.75 18.9584C8.75 11.6667 14.5833 5.83337 21.875 5.83337ZM21.875 14.5834C19.5417 14.5834 17.5 16.625 17.5 18.9584C17.5 21.2917 19.5417 23.3334 21.875 23.3334C24.2083 23.3334 26.25 21.2917 26.25 18.9584C26.25 16.625 24.2083 14.5834 21.875 14.5834ZM21.875 37.9167C27.7083 37.9167 32.375 41.4167 34.125 46.6667H61.25V55.4167H58.3333V64.1667H52.5V55.4167H46.6667V64.1667H37.9167V55.4167H34.125C32.375 60.6667 27.4167 64.1667 21.875 64.1667C14.5833 64.1667 8.75 58.3334 8.75 51.0417C8.75 43.75 14.5833 37.9167 21.875 37.9167ZM21.875 46.6667C19.5417 46.6667 17.5 48.7084 17.5 51.0417C17.5 53.375 19.5417 55.4167 21.875 55.4167C24.2083 55.4167 26.25 53.375 26.25 51.0417C26.25 48.7084 24.2083 46.6667 21.875 46.6667Z" fill="black"/>
</g>
</svg>
