<svg width="62" height="62" viewBox="0 0 62 62" fill="none" xmlns="http://www.w3.org/2000/svg">
<g id="Group">
<path id="Vector" d="M60.1663 26.6249V30.9999C60.1663 44.7491 60.1663 51.6237 55.8934 55.8937C51.6263 60.1666 44.7488 60.1666 30.9997 60.1666C17.2505 60.1666 10.3759 60.1666 6.10301 55.8937C1.83301 51.6266 1.83301 44.7491 1.83301 30.9999C1.83301 17.2508 1.83301 10.3762 6.10301 6.10325C10.3788 1.83325 17.2505 1.83325 30.9997 1.83325H35.3747" stroke="black" stroke-width="3" stroke-linecap="round"/>
<path id="Vector_2" d="M51.416 19.3333C56.2485 19.3333 60.166 15.4157 60.166 10.5833C60.166 5.75076 56.2485 1.83325 51.416 1.83325C46.5835 1.83325 42.666 5.75076 42.666 10.5833C42.666 15.4157 46.5835 19.3333 51.416 19.3333Z" stroke="black" stroke-width="3"/>
<path id="Vector_3" d="M16.416 36.8332L23.1039 30.1453C23.6509 29.5985 24.3926 29.2913 25.166 29.2913C25.9394 29.2913 26.6811 29.5985 27.2281 30.1453L31.8539 34.7711C32.4009 35.3179 33.1426 35.625 33.916 35.625C34.6894 35.625 35.4311 35.3179 35.9781 34.7711L45.5827 25.1665M45.5827 25.1665V32.4582M45.5827 25.1665H38.291" stroke="black" stroke-width="3" stroke-linecap="round" stroke-linejoin="round"/>
</g>
</svg>
